<svg width="100%" height="100%" style="overflow:visible;" preserveAspectRatio="none" viewBox="0 0 54.89 152.17" fill="none" xmlns="http://www.w3.org/2000/svg">
<path d="M31.087 14.6738H35.4348C36.0114 14.6738 36.5643 14.9029 36.972 15.3106C37.3797 15.7182 37.6087 16.2712 37.6087 16.8477V21.1956C37.6087 21.7721 37.3797 22.3251 36.972 22.7328C36.5643 23.1404 36.0114 23.3695 35.4348 23.3695H31.087C30.5104 23.3695 29.9575 23.1404 29.5498 22.7328C29.1421 22.3251 28.9131 21.7721 28.9131 21.1956V16.8477C28.9131 16.2712 29.1421 15.7182 29.5498 15.3106C29.9575 14.9029 30.5104 14.6738 31.087 14.6738Z" fill="#FC0000"/>
<path d="M31.087 37.5H35.4348C36.0114 37.5 36.5643 37.729 36.972 38.1367C37.3797 38.5444 37.6087 39.0974 37.6087 39.6739V44.0217C37.6087 44.5983 37.3797 45.1512 36.972 45.5589C36.5643 45.9666 36.0114 46.1957 35.4348 46.1957H31.087C30.5104 46.1957 29.9575 45.9666 29.5498 45.5589C29.1421 45.1512 28.9131 44.5983 28.9131 44.0217V39.6739C28.9131 39.0974 29.1421 38.5444 29.5498 38.1367C29.9575 37.729 30.5104 37.5 31.087 37.5Z" fill="#831A1A"/>
<path d="M31.087 60.3262H35.4348C36.0114 60.3262 36.5643 60.5552 36.972 60.9629C37.3797 61.3706 37.6087 61.9235 37.6087 62.5001V66.8479C37.6087 67.4245 37.3797 67.9774 36.972 68.3851C36.5643 68.7928 36.0114 69.0218 35.4348 69.0218H31.087C30.5104 69.0218 29.9575 68.7928 29.5498 68.3851C29.1421 67.9774 28.9131 67.4245 28.9131 66.8479V62.5001C28.9131 61.9235 29.1421 61.3706 29.5498 60.9629C29.9575 60.5552 30.5104 60.3262 31.087 60.3262Z" fill="#FFDD00"/>
<path d="M31.087 83.1521H35.4348C36.0114 83.1521 36.5643 83.3811 36.972 83.7888C37.3797 84.1965 37.6087 84.7495 37.6087 85.326V89.6738C37.6087 90.2504 37.3797 90.8033 36.972 91.211C36.5643 91.6187 36.0114 91.8478 35.4348 91.8478H31.087C30.5104 91.8478 29.9575 91.6187 29.5498 91.211C29.1421 90.8033 28.9131 90.2504 28.9131 89.6738V85.326C28.9131 84.7495 29.1421 84.1965 29.5498 83.7888C29.9575 83.3811 30.5104 83.1521 31.087 83.1521Z" fill="#3B82F6"/>
<path d="M31.087 105.978H35.4348C36.0114 105.978 36.5643 106.207 36.972 106.615C37.3797 107.023 37.6087 107.576 37.6087 108.152V112.5C37.6087 113.077 37.3797 113.63 36.972 114.037C36.5643 114.445 36.0114 114.674 35.4348 114.674H31.087C30.5104 114.674 29.9575 114.445 29.5498 114.037C29.1421 113.63 28.9131 113.077 28.9131 112.5V108.152C28.9131 107.576 29.1421 107.023 29.5498 106.615C29.9575 106.207 30.5104 105.978 31.087 105.978Z" fill="#1D7015"/>
<path d="M31.087 128.804H35.4348C36.0114 128.804 36.5643 129.033 36.972 129.441C37.3797 129.849 37.6087 130.402 37.6087 130.978V135.326C37.6087 135.903 37.3797 136.456 36.972 136.863C36.5643 137.271 36.0114 137.5 35.4348 137.5H31.087C30.5104 137.5 29.9575 137.271 29.5498 136.863C29.1421 136.456 28.9131 135.903 28.9131 135.326V130.978C28.9131 130.402 29.1421 129.849 29.5498 129.441C29.9575 129.033 30.5104 128.804 31.087 128.804Z" fill="#32BA05"/>
</svg>
